<svg id="visual" viewBox="0 0 900 600" width="900" height="600" xmlns="http://www.w3.org/2000/svg" xmlns:xlink="http://www.w3.org/1999/xlink" version="1.1"><rect x="0" y="0" width="900" height="600" fill="#001220"></rect><path d="M0 422L21.5 419.5C43 417 86 412 128.8 402.5C171.7 393 214.3 379 257.2 382.2C300 385.3 343 405.7 385.8 411.5C428.7 417.3 471.3 408.7 514.2 399.8C557 391 600 382 642.8 390C685.7 398 728.3 423 771.2 425.8C814 428.7 857 409.3 878.5 399.7L900 390L900 601L878.5 601C857 601 814 601 771.2 601C728.3 601 685.7 601 642.8 601C600 601 557 601 514.2 601C471.3 601 428.7 601 385.8 601C343 601 300 601 257.2 601C214.3 601 171.7 601 128.8 601C86 601 43 601 21.5 601L0 601Z" fill="#132360"></path><path d="M0 444L21.5 448C43 452 86 460 128.8 460.8C171.7 461.7 214.3 455.3 257.2 446C300 436.7 343 424.3 385.8 417.8C428.7 411.3 471.3 410.7 514.2 414.2C557 417.7 600 425.3 642.8 422.7C685.7 420 728.3 407 771.2 407.7C814 408.3 857 422.7 878.5 429.8L900 437L900 601L878.5 601C857 601 814 601 771.2 601C728.3 601 685.7 601 642.8 601C600 601 557 601 514.2 601C471.3 601 428.7 601 385.8 601C343 601 300 601 257.2 601C214.3 601 171.7 601 128.8 601C86 601 43 601 21.5 601L0 601Z" fill="#162b79"></path><path d="M0 487L21.5 486.7C43 486.3 86 485.7 128.8 483.7C171.7 481.7 214.3 478.3 257.2 477C300 475.7 343 476.3 385.8 480.3C428.7 484.3 471.3 491.7 514.2 490.5C557 489.3 600 479.7 642.8 470.3C685.7 461 728.3 452 771.2 451.7C814 451.3 857 459.7 878.5 463.8L900 468L900 601L878.5 601C857 601 814 601 771.2 601C728.3 601 685.7 601 642.8 601C600 601 557 601 514.2 601C471.3 601 428.7 601 385.8 601C343 601 300 601 257.2 601C214.3 601 171.7 601 128.8 601C86 601 43 601 21.5 601L0 601Z" fill="#1a3492"></path><path d="M0 511L21.5 507.3C43 503.7 86 496.3 128.8 492C171.7 487.7 214.3 486.3 257.2 487.8C300 489.3 343 493.7 385.8 502.2C428.7 510.7 471.3 523.3 514.2 520.5C557 517.7 600 499.3 642.8 491.7C685.7 484 728.3 487 771.2 489.2C814 491.3 857 492.7 878.5 493.3L900 494L900 601L878.5 601C857 601 814 601 771.2 601C728.3 601 685.7 601 642.8 601C600 601 557 601 514.2 601C471.3 601 428.7 601 385.8 601C343 601 300 601 257.2 601C214.3 601 171.7 601 128.8 601C86 601 43 601 21.5 601L0 601Z" fill="#1e3dac"></path><path d="M0 539L21.5 541.5C43 544 86 549 128.8 549.8C171.7 550.7 214.3 547.3 257.2 548.8C300 550.3 343 556.7 385.8 554.3C428.7 552 471.3 541 514.2 539.8C557 538.7 600 547.3 642.8 553.8C685.7 560.3 728.3 564.7 771.2 559.7C814 554.7 857 540.3 878.5 533.2L900 526L900 601L878.5 601C857 601 814 601 771.2 601C728.3 601 685.7 601 642.8 601C600 601 557 601 514.2 601C471.3 601 428.7 601 385.8 601C343 601 300 601 257.2 601C214.3 601 171.7 601 128.8 601C86 601 43 601 21.5 601L0 601Z" fill="#2446c7"></path></svg>